<?xml version="1.0" encoding="utf-8"?>
<!-- Generator: Adobe Illustrator 16.0.0, SVG Export Plug-In . SVG Version: 6.00 Build 0)  -->
<!DOCTYPE svg PUBLIC "-//W3C//DTD SVG 1.1//EN" "http://www.w3.org/Graphics/SVG/1.1/DTD/svg11.dtd">
<svg version="1.1" id="Capa_1" xmlns="http://www.w3.org/2000/svg" xmlns:xlink="http://www.w3.org/1999/xlink" x="0px" y="0px"
	 width="532.848px" height="595.28px" viewBox="31.217 123.305 532.848 595.28"
	 enable-background="new 31.217 123.305 532.848 595.28" xml:space="preserve">
<g>
	<g>
		<path fill="#FD014C" d="M297.682,123.305c-85.041,0-154.558,69.517-154.558,154.558c0,85.041,69.517,154.557,154.558,154.557
			c85.04,0,154.557-69.516,154.557-154.557C452.239,192.821,382.722,123.305,297.682,123.305z"/>
	</g>
</g>
<g>
	<g>
		<path fill="#FD014C" d="M562.926,555.93c-4.05-10.124-9.448-19.573-15.522-28.347c-31.047-45.896-78.966-76.267-132.959-83.69
			c-6.749-0.675-14.173,0.674-19.573,4.724c-28.347,20.923-62.092,31.722-97.188,31.722s-68.843-10.799-97.189-31.722
			c-5.399-4.05-12.824-6.074-19.572-4.724c-53.994,7.424-102.588,37.795-132.959,83.69c-6.074,8.773-11.474,18.898-15.522,28.347
			c-2.024,4.05-1.351,8.774,0.674,12.824c5.4,9.448,12.148,18.898,18.223,26.997c9.449,12.823,19.573,24.297,31.047,35.095
			c9.449,9.449,20.247,18.223,31.047,26.997c53.318,39.821,117.437,60.742,183.578,60.742c66.143,0,130.261-20.923,183.578-60.742
			c10.799-8.099,21.598-17.548,31.047-26.997c10.799-10.798,21.598-22.272,31.047-35.095c6.749-8.774,12.824-17.549,18.223-26.997
			C564.276,564.704,564.95,559.979,562.926,555.93z"/>
	</g>
</g>
</svg>
