<?xml version="1.0" encoding="utf-8"?>
<!-- Generator: Adobe Illustrator 16.0.0, SVG Export Plug-In . SVG Version: 6.00 Build 0)  -->
<!DOCTYPE svg PUBLIC "-//W3C//DTD SVG 1.1//EN" "http://www.w3.org/Graphics/SVG/1.1/DTD/svg11.dtd">
<svg version="1.1" id="Capa_1" xmlns="http://www.w3.org/2000/svg" xmlns:xlink="http://www.w3.org/1999/xlink" x="0px" y="0px"
	 width="595.279px" height="595.28px" viewBox="0 123.305 595.279 595.28" enable-background="new 0 123.305 595.279 595.28"
	 xml:space="preserve">
<g>
	<g>
		<path fill="#2B2B2B" d="M574.02,272.125h-106.3v-127.56c0-11.742-9.519-21.261-21.261-21.261H21.26
			C9.519,123.305,0,132.823,0,144.565v488.979c0,46.967,38.073,85.04,85.04,85.04H510.24c46.967,0,85.04-38.073,85.04-85.04v-340.16
			C595.28,281.644,585.762,272.125,574.02,272.125z M170.079,229.604H297.64c11.741,0,21.26,9.519,21.26,21.26
			c0,11.742-9.519,21.261-21.26,21.261H170.079c-11.742,0-21.26-9.519-21.26-21.261C148.82,239.123,158.339,229.604,170.079,229.604
			z M361.419,633.545h-255.12c-11.741,0-21.26-9.519-21.26-21.261s9.519-21.26,21.26-21.26h255.12
			c11.742,0,21.261,9.518,21.261,21.26S373.161,633.545,361.419,633.545z M361.419,548.505h-255.12
			c-11.741,0-21.26-9.519-21.26-21.261s9.519-21.261,21.26-21.261h255.12c11.742,0,21.261,9.519,21.261,21.261
			S373.161,548.505,361.419,548.505z M361.419,463.465h-255.12c-11.741,0-21.26-9.518-21.26-21.26s9.519-21.261,21.26-21.261h255.12
			c11.742,0,21.261,9.519,21.261,21.261S373.161,463.465,361.419,463.465z M361.419,378.425h-255.12
			c-11.741,0-21.26-9.519-21.26-21.26c0-11.742,9.519-21.26,21.26-21.26h255.12c11.742,0,21.261,9.518,21.261,21.26
			C382.68,368.906,373.161,378.425,361.419,378.425z M552.759,633.545c0,23.482-19.037,42.52-42.52,42.52s-42.52-19.037-42.52-42.52
			v-318.9h85.04L552.759,633.545L552.759,633.545z"/>
	</g>
</g>
</svg>
