<svg id="Layer_1" enable-background="new 0 0 509.763 509.763" height="512" viewBox="0 0 509.763 509.763" width="512" xmlns="http://www.w3.org/2000/svg"><g><path fill="#fff" d="m355.739 301.351-42.427 42.426c-1.238 1.239-10.174 10.174-10.61 10.61-15.024 15.016-63.571.063-106.063-42.429-42.491-42.491-57.444-91.038-42.43-106.062l53.037-53.037-106.066-106.067-42.426 42.427c-7.475 7.475-17.044 17.044-21.213 21.213-156.477 118.319 218.464 499.628 350.282 370.966l10.342-10.341 21.213-21.213 42.426-42.427zm-254.559-212.132 63.639 63.64-21.213 21.213-63.64-63.64zm162.761 376.333c-83.749-31.647-194.053-140.924-223.891-225.562-11.202-29.937-18.842-71.242 8.364-98.004l10.34-10.34 65.396 65.395c-7.454 15.091-7.514 35.06.08 57.84 8.735 26.206 26.918 54.01 51.197 78.29 33.201 33.202 94.413 71.885 136.13 51.277l65.395 65.396c-5.579 1.936-26.988 49.949-113.011 15.708zm70.585-100.561 21.213-21.213 63.64 63.64-21.213 21.213z"/><path fill="#fff" d="m404.763 87.797v30h53.787l-109.394 109.393 21.213 21.213 109.394-109.393v53.787h30v-105z"/><path fill="#fff" d="m359.763 132.797h-53.787l109.393-109.394-21.213-21.213-109.393 109.394v-53.787h-30v105h105z"/></g></svg>