<?xml version="1.0" encoding="utf-8"?>
<!-- Generator: Adobe Illustrator 16.0.0, SVG Export Plug-In . SVG Version: 6.00 Build 0)  -->
<!DOCTYPE svg PUBLIC "-//W3C//DTD SVG 1.1//EN" "http://www.w3.org/Graphics/SVG/1.1/DTD/svg11.dtd">
<svg version="1.1" id="Capa_1" xmlns="http://www.w3.org/2000/svg" xmlns:xlink="http://www.w3.org/1999/xlink" x="0px" y="0px"
	 width="595.279px" height="595.28px" viewBox="0 123.305 595.279 595.28" enable-background="new 0 123.305 595.279 595.28"
	 xml:space="preserve">
<path fill="#FFFFFF" d="M588.5,679.076L443.223,533.802c36.111-43.424,57.866-99.187,57.866-159.944
	c0-138.155-112.394-250.553-250.543-250.553C112.394,123.305,0,235.702,0,373.857c0,138.146,112.394,250.534,250.546,250.534
	c60.755,0,116.521-21.753,159.944-57.863l145.281,145.277c4.518,4.521,10.442,6.779,16.364,6.779s11.847-2.259,16.367-6.779
	C597.542,702.767,597.542,688.115,588.5,679.076z M46.288,373.857c0-112.632,91.629-204.264,204.258-204.264
	c112.626,0,204.252,91.632,204.252,204.264c0,112.623-91.626,204.246-204.252,204.246C137.917,578.104,46.288,486.48,46.288,373.857
	z"/>
</svg>
