<?xml version="1.0" encoding="utf-8"?>
<!-- Generator: Adobe Illustrator 16.0.0, SVG Export Plug-In . SVG Version: 6.00 Build 0)  -->
<!DOCTYPE svg PUBLIC "-//W3C//DTD SVG 1.1//EN" "http://www.w3.org/Graphics/SVG/1.1/DTD/svg11.dtd">
<svg version="1.1" id="Capa_1" xmlns="http://www.w3.org/2000/svg" xmlns:xlink="http://www.w3.org/1999/xlink" x="0px" y="0px"
	 width="512px" height="512px" viewBox="0 0 512 512" enable-background="new 0 0 512 512" xml:space="preserve">
<g id="XMLID_235_">
	<g id="XMLID_164_">
		<path id="XMLID_196_" fill="#FFFFFF" d="M463.954,106.685c5.057-6.935,8.051-15.465,8.051-24.685c0-23.159-18.842-42-42-42
			c-9.221,0-17.75,2.994-24.686,8.05C361.651,16.594,310.203,0,256,0c-53.173,0-104.162,16.152-147.457,46.709
			c-4.513,3.185-5.588,9.424-2.403,13.937c3.186,4.512,9.425,5.588,13.938,2.403c28.92-20.412,61.572-33.843,96.018-39.694
			c-4.009,5.094-8.037,11.225-12.012,18.609c-12.132,22.539-22.145,53.578-29.123,90.158c-18.36,1.32-33.485,14.484-37.751,31.878
			H38.607c5.813-13.719,12.944-26.926,21.362-39.453c3.08-4.584,1.86-10.797-2.724-13.877c-4.584-3.081-10.798-1.861-13.877,2.723
			C14.996,155.617,0,204.93,0,256c0,54.186,16.595,105.645,48.047,149.319C42.993,412.253,40,420.782,40,430
			c0,23.159,18.841,42,42,42c9.219,0,17.748-2.993,24.682-8.048C150.354,495.406,201.81,512,256,512
			c68.38,0,132.666-26.629,181.02-74.981C485.37,388.668,511.999,324.38,511.999,256
			C511.999,201.802,495.407,150.355,463.954,106.685L463.954,106.685z M480.754,328H374.116
			c-3.425-13.965-13.849-25.201-27.328-29.775C347.577,284.333,348,270.178,348,256c0-24.726-1.198-48.92-3.508-71.999h136.386
			C488.225,206.996,492,231.185,492,256C492,281.1,488.046,305.291,480.754,328z M256,492c-16.755,0-34.884-24.379-48.496-65.214
			c-7.629-22.889-13.531-49.627-17.515-78.785h102.552c3.202,13.054,12.516,23.729,24.729,28.804
			C302.057,456.289,275.825,492,256,492L256,492z M82,388c-6.688,0-13.01,1.579-18.627,4.371
			C53.429,378.372,45.134,363.518,38.55,348h131.276c4.155,31.467,10.463,60.387,18.703,85.11
			c7.925,23.773,17.152,42.371,27.432,55.53c-34.64-5.875-67.324-19.406-96.332-40.013C122.421,443.01,124,436.687,124,430
			C124,406.841,105.159,388,82,388z M184,256c0-13.645,0.399-27.26,1.149-40.622c16.476-2.841,29.691-15.303,33.634-31.378h105.613
			c2.371,22.992,3.603,47.199,3.603,72c0,13.6-0.397,27.174-1.144,40.5c-16.792,2.609-30.317,15.203-34.314,31.5H187.602
			C185.233,305.009,184,280.802,184,256L184,256z M333.328,360c-12.131,0-22-9.869-22-22s9.869-22,22-22c12.132,0,22,9.869,22,22
			S345.46,360,333.328,360z M323.47,78.89c-7.925-23.775-17.153-42.373-27.433-55.533c34.645,5.875,67.329,19.405,96.338,40.015
			c-2.792,5.618-4.37,11.941-4.37,18.628c0,23.159,18.841,42,42,42c6.687,0,13.009-1.579,18.627-4.37
			c9.944,13.998,18.236,28.854,24.819,44.371H342.174C338.018,132.533,331.709,103.613,323.47,78.89L323.47,78.89z M452.005,82
			c0,12.131-9.869,22-22,22c-12.132,0-22-9.869-22-22s9.868-22,22-22C442.136,60,452.005,69.869,452.005,82z M256,20
			c16.755,0,34.884,24.379,48.496,65.214c7.628,22.889,13.53,49.628,17.514,78.786H218.784c-3.147-12.831-12.2-23.362-24.105-28.536
			C209.879,55.796,236.136,20,256,20L256,20z M177.996,152.001c12.131,0,22,9.869,22,22s-9.869,22-22,22c-12.132,0-22-9.869-22-22
			S165.865,152.001,177.996,152.001z M137.209,184.001c3.48,14.193,14.188,25.573,27.988,29.999
			c-0.779,13.818-1.197,27.896-1.197,42c0,24.727,1.197,48.921,3.507,72H31.127C23.778,305.001,20,280.811,20,256
			c0-24.684,3.805-48.918,11.187-71.999H137.209z M60,430c0-12.131,9.869-22,22-22s22,9.869,22,22s-9.869,22-22,22
			S60,442.131,60,430z M295.937,488.604c3.975-5.055,7.967-11.128,11.908-18.432c12.169-22.557,22.213-53.668,29.207-90.346
			c18.051-1.594,32.853-14.649,37.064-31.826h99.209C442.41,420.752,375.989,474.901,295.937,488.604L295.937,488.604z"/>
		<path id="XMLID_1702_" fill="#FFFFFF" d="M80.06,94.06c2.642,0,5.21-1.06,7.08-2.93c1.86-1.86,2.92-4.44,2.92-7.07
			s-1.06-5.2-2.92-7.07c-1.87-1.86-4.438-2.93-7.08-2.93c-2.63,0-5.21,1.07-7.068,2.93c-1.86,1.87-2.932,4.44-2.932,7.07
			s1.07,5.21,2.932,7.07C74.85,93,77.43,94.06,80.06,94.06z"/>
	</g>
</g>
</svg>
